<svg xmlns="http://www.w3.org/2000/svg" xmlns:xlink="http://www.w3.org/1999/xlink" width="45" zoomAndPan="magnify" viewBox="0 0 33.75 33.749999" height="45" preserveAspectRatio="xMidYMid meet" version="1.0"><defs><clipPath id="8a2eba64e0"><path d="M 0 18 L 33.5 18 L 33.5 33.5 L 0 33.5 Z M 0 18 " clip-rule="nonzero"/></clipPath></defs><g clip-path="url(#8a2eba64e0)"><path fill="#c17e48" d="M 31.539062 23.476562 L 4.144531 33.230469 C 2.683594 33.75 1.082031 32.988281 0.566406 31.53125 C 0.0429688 30.070312 0.804688 28.464844 2.261719 27.945312 L 29.65625 18.191406 C 31.113281 17.671875 32.71875 18.433594 33.238281 19.894531 C 33.5 20.625 33.4375 21.390625 33.125 22.035156 C 32.816406 22.6875 32.265625 23.21875 31.539062 23.476562 " fill-opacity="1" fill-rule="nonzero"/><path fill="#bc6f3b" d="M 2.265625 23.476562 L 29.65625 33.230469 C 31.117188 33.75 32.71875 32.988281 33.238281 31.53125 C 33.757812 30.070312 33 28.464844 31.539062 27.945312 L 4.144531 18.191406 C 2.691406 17.671875 1.085938 18.433594 0.5625 19.894531 C 0.304688 20.625 0.367188 21.390625 0.675781 22.035156 C 0.984375 22.6875 1.539062 23.21875 2.265625 23.476562 " fill-opacity="1" fill-rule="nonzero"/></g><path fill="#ffcb2f" d="M 23.910156 22.132812 C 22.929688 23.066406 21.625 23.933594 19.894531 24.6875 C 19.875 24.695312 19.851562 24.707031 19.828125 24.714844 C 19.699219 24.765625 19.566406 24.804688 19.425781 24.839844 C 19.222656 24.886719 19.015625 24.90625 18.808594 24.90625 L 13.691406 24.90625 C 13.347656 24.90625 13.007812 24.847656 12.699219 24.71875 C 11.273438 24.144531 7.472656 22.097656 7.386719 16.59375 C 7.382812 16.183594 7.402344 15.773438 7.441406 15.371094 C 7.640625 13.296875 8.421875 11.3125 9.625 9.597656 C 10.167969 8.828125 10.804688 7.886719 11.414062 6.886719 C 12.527344 5.046875 13.554688 3 13.777344 1.414062 L 13.777344 1.386719 C 13.796875 1.285156 13.804688 1.1875 13.8125 1.09375 C 13.816406 0.996094 13.824219 0.894531 13.824219 0.804688 L 13.824219 0.683594 C 13.8125 0.285156 14.222656 0.015625 14.566406 0.214844 C 15.25 0.597656 16.214844 1.285156 17.179688 2.445312 C 17.261719 2.539062 17.332031 2.628906 17.40625 2.722656 C 17.484375 2.824219 17.558594 2.921875 17.632812 3.019531 C 17.710938 3.121094 17.785156 3.226562 17.855469 3.332031 C 17.9375 3.4375 18.007812 3.550781 18.074219 3.664062 C 18.226562 3.890625 18.375 4.132812 18.511719 4.386719 C 18.65625 4.644531 18.804688 4.914062 18.941406 5.199219 C 19.132812 5.597656 19.3125 6.015625 19.480469 6.464844 C 19.558594 6.664062 19.632812 6.863281 19.703125 7.074219 C 19.757812 7.226562 19.808594 7.386719 19.855469 7.550781 C 19.929688 7.777344 19.996094 8.007812 20.0625 8.253906 C 20.101562 8.382812 20.132812 8.519531 20.167969 8.65625 C 20.234375 8.910156 20.292969 9.171875 20.347656 9.4375 C 20.378906 9.578125 20.40625 9.714844 20.433594 9.859375 C 20.519531 10.277344 20.589844 10.714844 20.652344 11.164062 C 20.757812 11.945312 20.835938 12.78125 20.882812 13.675781 C 20.882812 13.675781 22.273438 13.570312 22.929688 11.648438 C 23 11.4375 23.0625 11.199219 23.113281 10.933594 C 23.148438 10.773438 23.175781 10.597656 23.199219 10.410156 C 23.214844 10.292969 23.226562 10.160156 23.234375 10.027344 C 23.242188 9.914062 23.246094 9.796875 23.253906 9.675781 C 23.273438 9.171875 23.921875 8.980469 24.1875 9.410156 C 24.246094 9.511719 24.304688 9.609375 24.367188 9.714844 C 24.492188 9.929688 24.617188 10.152344 24.742188 10.390625 C 24.808594 10.511719 24.871094 10.636719 24.9375 10.761719 C 25.0625 11.015625 25.1875 11.285156 25.304688 11.5625 C 25.492188 11.980469 25.664062 12.417969 25.816406 12.882812 C 25.96875 13.34375 26.101562 13.820312 26.199219 14.316406 C 26.71875 16.839844 26.433594 19.714844 23.910156 22.132812 " fill-opacity="1" fill-rule="nonzero"/><path fill="#f38525" d="M 14.414062 10.140625 C 15.390625 10.691406 17.488281 12.425781 17.742188 17.226562 C 17.742188 17.226562 18.917969 17.140625 18.988281 15.121094 C 19 14.855469 19.339844 14.757812 19.480469 14.984375 C 20.515625 16.6875 22.3125 20.800781 17.222656 23.027344 C 17.042969 23.105469 16.84375 23.144531 16.648438 23.144531 L 13.953125 23.144531 C 13.773438 23.144531 13.59375 23.113281 13.429688 23.042969 C 12.679688 22.742188 10.675781 21.664062 10.632812 18.765625 C 10.613281 17.445312 11.050781 16.160156 11.8125 15.082031 C 12.707031 13.8125 14.070312 11.664062 14.023438 10.386719 C 14.015625 10.179688 14.230469 10.035156 14.414062 10.140625 " fill-opacity="1" fill-rule="nonzero"/></svg>